<?xml version="1.0" encoding="UTF-8" standalone="no"?>
<!-- Created with Inkscape (http://www.inkscape.org/) -->

<svg
   xmlns:dc="http://purl.org/dc/elements/1.1/"
   xmlns:cc="http://creativecommons.org/ns#"
   xmlns:rdf="http://www.w3.org/1999/02/22-rdf-syntax-ns#"
   xmlns:svg="http://www.w3.org/2000/svg"
   xmlns="http://www.w3.org/2000/svg"
   xmlns:sodipodi="http://sodipodi.sourceforge.net/DTD/sodipodi-0.dtd"
   xmlns:inkscape="http://www.inkscape.org/namespaces/inkscape"
   id="svg2"
   version="1.1"
   inkscape:version="0.48.4 r9939"
   width="316"
   height="1145"
   sodipodi:docname="woman_new.png">
  <metadata
     id="metadata8">
    <rdf:RDF>
      <cc:Work
         rdf:about="">
        <dc:format>image/svg+xml</dc:format>
        <dc:type
           rdf:resource="http://purl.org/dc/dcmitype/StillImage" />
        <dc:title></dc:title>
      </cc:Work>
    </rdf:RDF>
  </metadata>
  <defs
     id="defs6">
    <filter
       id="filter3005"
       inkscape:label="Simple blur"
       inkscape:menu="ABCs"
       inkscape:menu-tooltip="Simple Gaussian blur, same as the blur slider in Fill and Stroke dialog"
       color-interpolation-filters="sRGB">
      <feGaussianBlur
         id="feGaussianBlur3007"
         stdDeviation="3" />
    </filter>
  </defs>
  <sodipodi:namedview
     pagecolor="#ffffff"
     bordercolor="#666666"
     borderopacity="1"
     objecttolerance="10"
     gridtolerance="10"
     guidetolerance="10"
     inkscape:pageopacity="0"
     inkscape:pageshadow="2"
     inkscape:window-width="1360"
     inkscape:window-height="716"
     id="namedview4"
     showgrid="false"
     inkscape:zoom="0.41222707"
     inkscape:cx="227.50404"
     inkscape:cy="684.15366"
     inkscape:window-x="0"
     inkscape:window-y="0"
     inkscape:window-maximized="1"
     inkscape:current-layer="g2987" />
  <g
     id="g2987"
     transform="translate(-264.16131,0)">
    <path
       style="fill:#000000;filter:url(#filter3005)"
       d="m 370.16131,1144.0163 c -3.5,-0.753 -3.5,-0.753 -0.5,-0.9826 2.13558,-0.1635 1.15494,-0.5925 -3.40333,-1.4888 -6.09758,-1.1991 -14.76016,-1.175 -23.68557,0.066 -6.30243,0.8762 -7.4111,-0.8476 -7.4111,-11.5234 0,-4.9026 -0.65665,-10.9343 -1.48917,-13.6786 -0.81905,-2.6999 -1.49405,-7.2494 -1.5,-10.1101 -0.0206,-9.888 -3.1085,-18.2387 -6.76083,-18.2835 -2.07658,-0.025 -1.41448,-2.059 1.58369,-4.8641 6.82077,-6.3815 10.99803,-25.1766 6.57795,-29.5967 -1.32075,-1.3208 -1.47056,-3.0025 -0.88919,-9.9817 0.67949,-8.1572 0.62727,-8.4559 -1.8562,-10.6152 -3.24469,-2.8212 -4.67992,-11.6882 -2.54164,-15.7027 1.09367,-2.0533 1.1157,-2.6694 0.10754,-3.0078 -2.72532,-0.915 -4.23215,-3.5583 -4.23215,-7.4242 0,-2.2188 -0.6483,-6.5742 -1.44067,-9.67856 -0.79238,-3.10438 -1.409,-8.1413 -1.37028,-11.19314 0.0419,-3.30202 -0.58949,-6.8249 -1.55932,-8.70034 -1.94246,-3.7563 -2.03972,-5.6215 -0.42772,-8.20272 0.89757,-1.43724 0.92054,-2.51021 0.0907,-4.23643 -2.29577,-4.77551 -2.62198,-6.53306 -2.80509,-15.11334 -0.15856,-7.4304 -0.54521,-9.28503 -2.48182,-11.90443 -1.85834,-2.51354 -2.07671,-3.4507 -1.14988,-4.93479 0.62926,-1.00761 1.1441,-4.22569 1.1441,-7.1513 0,-4.10363 0.57135,-6.09371 2.5,-8.70785 1.375,-1.86371 2.5,-4.71052 2.5,-6.32625 0,-1.61572 1.00251,-4.55977 2.22779,-6.54231 2.63236,-4.25925 5.37017,-46.50518 3.42706,-52.88144 -0.66141,-2.1704 -0.6504,-4.35785 0.0332,-6.58506 C 326.02505,840.83424 325.33637,821 324.02769,821 c -1.20804,0 -1.0899,-5.74378 0.13369,-6.5 2.38485,-1.47392 -0.30343,-18.80734 -3.20205,-20.64604 -0.71387,-0.45283 -3.09795,-0.84178 -5.29795,-0.86432 -2.2,-0.0225 -7.7977,-0.89967 -12.43933,-1.94917 -5.6524,-1.27804 -9.01557,-1.59979 -10.18426,-0.97432 -2.84943,1.52497 -5.69832,1.07033 -6.36017,-1.015 -0.3402,-1.07186 -1.45489,-2.21429 -2.47708,-2.53872 -3.74428,-1.18839 -4.07424,-2.71098 -3.13084,-14.44703 0.7152,-8.89727 1.31024,-11.68642 2.85891,-13.40063 4.19699,-4.6456 5.30794,-12.01102 2.38013,-15.77991 -2.50261,-3.22154 -3.66972,-12.20645 -1.78839,-13.76781 2.74943,-2.28182 4.07547,-9.79566 2.63709,-14.94275 -2.83066,-10.12921 -0.96789,-42.11702 3.73335,-64.10969 1.95109,-9.12731 2.34066,-12.54126 1.46442,-12.83334 -2.32356,-0.77451 -0.53016,-9.12589 6.26571,-29.17775 2.05188,-6.05428 3.54046,-12.40472 3.54046,-15.10398 0,-3.50141 0.58275,-5.28629 2.3477,-7.19071 3.64471,-3.9327 6.09923,-20.54349 8.6826,-58.75883 0.61347,-9.075 1.46691,-21.72179 1.89652,-28.10397 0.66758,-9.91727 1.09305,-11.9159 2.92715,-13.75 1.18032,-1.18032 2.14603,-3.24986 2.14603,-4.59898 0,-3.11269 1.8869,-7.52694 4.20447,-9.83601 3.57354,-3.56044 2.37618,-8.28348 -4.28192,-16.89022 -6.07745,-7.85615 -6.07745,-7.85615 -6.39438,-22.08848 C 313.37263,417.5 313.37263,417.5 309.22428,409.5 c -5.37375,-10.36314 -7.65565,-16.01826 -10.01781,-24.8266 -2.34602,-8.74817 -6.57895,-18.21491 -8.90496,-19.91551 -1.16392,-0.85098 -2.07784,-3.79532 -2.82518,-9.10182 -0.91407,-6.49037 -1.61867,-8.38855 -4.08319,-11 -3.36821,-3.56902 -4.56886,-9.77493 -4.74944,-24.54881 -0.0974,-7.96776 -0.24648,-8.50748 -2.94444,-10.65876 -2.71761,-2.16694 -2.81426,-2.53007 -2.21064,-8.30522 0.57078,-5.46098 0.39385,-6.3213 -1.84801,-8.9856 -3.13319,-3.72358 -3.51637,-17.43714 -0.77471,-27.72624 1.76198,-6.61252 1.58955,-9.72105 -1.68808,-30.43144 -1.92063,-12.13593 -1.27153,-23.0244 1.62144,-27.19896 2.63788,-3.80646 2.63788,-3.80646 -0.5,-9.69373 -1.75519,-3.29309 -3.20406,-7.58815 -3.28807,-9.74729 -0.15019,-3.86002 1.45793,-11.57902 0.83436,-7.07902 -0.58539,4.2245 -0.0289,6.24713 -0.77408,-1.48486 -0.77106,-8.00064 -0.92888,-3.43814 0.44794,-8.28491 0.4031,-1.41902 0.64197,1.86284 0.64197,-3.5401 0,-3.17927 0.81022,-6.38912 2.33802,-9.26251 2.1073,-3.96328 2.40535,-6.19077 3.02034,-22.57224 0.60554,-16.12961 0.94941,-18.76369 3.05557,-23.4057 2.84377,-6.26774 6.58607,-18.513683 6.58607,-21.551627 0,-1.795478 0.5769,-2.179053 3.27732,-2.179053 6.3905,0 12.49188,-10.6878 11.16243,-19.55325 -0.44195,-2.947128 -0.2559,-4.963343 0.5473,-5.931147 0.7463,-0.899234 1.36915,-6.019541 1.61067,-13.240916 0.2166,-6.476078 1.11561,-18.918985 1.9978,-27.650904 0.8822,-8.731919 1.34536,-17.169419 1.02924,-18.7499998 -0.52099,-2.60495882 -0.31985,-2.87235082 2.15024,-2.85847042 2.55383,0.014351 7.03987,1.93621312 4.59694,1.96937442 -0.75182,0.010206 -0.59895,1.1826597 0.45835,3.5153128 1.53967,3.3968856 4.34965,4.635916 5.66971,2.5 1.34694,-2.1793858 3.73562,-0.8097635 5.23214,3 1.31006,3.335088 2.0349,4 4.36054,4 3.65209,0 4.26377,1.142394 5.08661,9.5 0.37905,3.85 1.22116,10.056678 1.87136,13.792618 1.03365,5.939134 0.97909,7.017043 -0.43423,8.578741 C 329.33933,49.565838 329.72425,52 332.5888,52 c 1.48428,0 3.22422,-1.068478 4.47817,-2.75 6.09286,-8.170355 9.71537,-8.797001 8.71627,-1.507798 -0.91813,6.698485 -3.58391,16.958765 -5.22177,20.097941 -0.76327,1.462921 -1.39054,3.616363 -1.39393,4.785427 -0.0115,3.968731 -4.7707,12.821929 -8.42212,15.667062 -3.17281,2.472214 -3.58404,3.311948 -3.58404,7.318779 0,2.489382 -1.15059,9.065209 -2.55687,14.612959 -2.12356,8.3774 -2.35937,10.56363 -1.39144,12.90042 0.86515,2.08864 0.8798,3.63299 0.0569,5.99363 -0.6097,1.74902 -1.10856,4.68142 -1.10856,6.51645 0,1.83504 -0.42555,5.25539 -0.94567,7.60078 -0.52012,2.34539 -1.41531,8.05995 -1.98931,12.69901 -0.7792,6.29739 -1.72514,9.46446 -3.73314,12.49876 -5.07836,7.67392 -6.32826,39.70606 -1.87607,48.07948 1.39931,2.63174 2.54419,6.08241 2.54419,7.66816 0,1.58575 0.675,4.49868 1.5,6.47318 0.825,1.97451 1.5,4.62325 1.5,5.8861 0,9.05151 8.7639,4.68343 14.95617,-7.45443 1.15404,-2.2621 3.96447,-5.79434 6.24539,-7.84941 6.25329,-5.63411 9.90176,-9.46344 11.65857,-12.2365 5.15896,-8.14325 12.58572,-16.13529 17.82396,-19.18063 3.14027,-1.82565 7.16579,-4.78187 8.9456,-6.56937 3.29324,-3.30748 5.90314,-4.1515 6.5779,-2.12724 0.27532,0.82598 4.19616,0.7874 14.83333,-0.14597 27.28413,-2.39406 29.0819,-1.98616 39.76854,9.02321 11.01731,11.35004 16.11491,25.30054 13.31218,36.4312 -0.82811,3.28873 -0.83055,5.82765 -0.009,9.65706 1.15289,5.37575 0.86542,7.11856 -2.9402,17.82523 -1.13972,3.20649 -1.58288,8.40262 -1.62045,19 -0.0284,8.02258 -0.40542,15.2908 -0.83773,16.15161 -1.49954,2.98575 3.66631,6.98083 11.01462,8.51829 3.65485,0.7647 9.26287,2.29626 12.46228,3.40348 3.1994,1.10722 6.9403,2.01313 8.31311,2.01313 1.37281,0 2.49602,0.44143 2.49602,0.98095 0,0.53952 1.125,1.2633 2.5,1.60841 2.88077,0.72302 3.62525,5.76486 1,6.77227 -8.28042,3.17749 2.64774,7.93768 18.5,8.05841 13.8069,0.10514 14.55951,27.88581 1.36539,50.39987 -2.71483,4.6325 -2.33042,15.10933 0.86885,23.68009 0.61591,1.65 1.16522,6.15 1.22069,10 0.0709,4.9225 0.63069,7.79266 1.88608,9.67081 1.02168,1.52848 2.34868,6.70493 3.10259,12.10277 0.72455,5.18758 2.05639,10.55987 2.95966,11.93843 0.90326,1.37855 2.27279,5.51992 3.0434,9.20305 1.43517,6.85937 1.96321,7.89529 6.66973,13.08494 4.17683,4.60558 7.88361,12.3752 7.88361,16.52451 0,2.04965 1.17465,6.37012 2.61033,9.60106 2.70874,6.0959 4.80381,12.69928 6.44236,20.30548 0.525,2.43708 1.55725,5.36208 2.29387,6.5 0.73663,1.13792 1.62868,4.88699 1.98234,8.33126 0.35365,3.44426 1.54933,8.03884 2.65705,10.21016 1.11897,2.19335 2.01405,5.91103 2.01405,8.36525 0,2.42956 0.58151,4.9 1.29224,5.48986 3.86674,3.20911 7.08489,12.99967 5.6761,17.26836 -1.36819,4.14564 -1.36364,4.16167 2.04647,7.2086 4.74729,4.2417 7.98115,9.286 8.00715,12.48987 0.0247,3.0447 3.18752,10.59899 4.87391,11.64124 0.60727,0.37531 1.10413,2.31138 1.10413,4.30237 0,1.99099 0.54291,5.12139 1.20648,6.95644 0.99725,2.75784 0.94042,3.81068 -0.3277,6.071 -1.7417,3.10443 -1.74305,12.65571 -0.003,21.36434 0.59014,2.95361 1.36479,7.6202 1.72142,10.3702 0.48431,3.73452 0.83519,4.49381 1.38636,3 1.2502,-3.38838 2.33017,5.92567 1.43118,12.34298 -0.53327,3.80659 -0.93365,4.83926 -1.22402,3.15702 -0.47121,-2.72994 -3.05686,5.23498 -3.14658,9.69284 -0.18627,9.25541 -16.15386,14.6178 -27.79413,9.33409 -4.79405,-2.1761 -5.46449,-4.51645 -1.77535,-6.19734 4.57524,-2.08461 1.83186,-19.64537 -3.32472,-21.282 -1.30521,-0.41426 -2.11507,-1.92812 -2.57706,-4.81728 -0.76058,-4.75635 -4.06229,-12.17192 -6.83799,-15.35796 -2.41256,-2.76887 -7.73518,-15.87208 -7.73518,-19.0417 0,-3.09362 -1.33392,-5.64375 -5.92683,-11.33065 -5.28132,-6.5393 -8.69773,-11.86012 -11.06738,-17.23671 -2.94554,-6.68327 -7.81638,-8.68554 -12.73985,-5.23701 -2.05186,1.43718 -2.14893,2.09393 -1.66277,11.25 0.28397,5.34805 0.0421,20.74872 -0.53751,34.22372 -0.57961,13.475 -1.0173,32.40639 -0.97266,42.06975 0.0523,11.3231 -0.36541,19.14485 -1.17488,22 -0.69083,2.43664 -1.37172,7.80525 -1.51309,11.93025 -0.34346,10.02174 -1.74302,17.65652 -4.24242,23.14305 -1.1915,2.61551 -1.81446,5.47226 -1.47575,6.76749 0.81766,3.12677 -1.41075,21.92714 -3.78308,31.91647 -1.66767,7.0222 -1.78475,8.86017 -0.74716,11.72957 1.09748,3.03504 1.00676,3.64781 -0.83995,5.67299 -2.68032,2.93938 -3.97898,7.29875 -5.29382,17.77043 -1.81899,14.48691 -2.87474,17.87205 -6.09294,19.53624 -4.50968,2.33205 -6.63792,14.55956 -4.45608,25.60177 0.5368,2.71676 0.17926,4.85781 -1.41193,8.45497 -1.31267,2.9675 -1.90972,5.8234 -1.55504,7.43826 0.61577,2.80357 -0.93257,7.99579 -2.71238,9.09578 -0.59422,0.36725 -1.41863,2.62641 -1.83201,5.02035 -0.41339,2.39395 -1.47406,6.96209 -2.35704,10.15142 -1.93336,6.98327 -1.94709,8.9952 -0.0968,14.19134 1.15653,3.24792 1.23635,6.31712 0.42911,16.5 -0.54544,6.88043 -1.09269,17.04265 -1.21612,22.5827 -0.17808,7.99328 -0.58027,10.42869 -1.94807,11.7965 -1.87808,1.87806 -4.77355,10.58071 -4.77355,14.34735 0,1.29453 -0.65298,3.35035 -1.45107,4.5685 -0.79809,1.21815 -2.16451,6.93982 -3.03649,12.71482 -0.87198,5.775 -2.3346,13.65 -3.25027,17.5 -0.91568,3.85 -1.6365,9.3625 -1.60182,12.25 0.0347,2.8875 -0.28856,5.25 -0.71829,5.25 -4.48565,0 -8.43752,44.3015 -4.5048,50.5 0.69791,1.1 1.50224,4.4485 1.78741,7.4412 0.50716,5.3223 2.73549,8.6498 6.9582,10.3903 1.00522,0.4143 0.8938,0.8864 -0.47048,1.9934 -4.9262,3.9974 -4.32612,11.8608 1.30257,17.0686 7.59859,7.0305 13.29998,19.9507 10.61322,24.0512 -2.02548,3.0913 -2.06184,4.9505 -0.12818,6.5553 3.46523,2.8759 0.34806,3.5448 -21.5,4.6136 -8.40121,0.411 -11.71548,0.9431 -12.29969,1.9745 -0.46414,0.8195 -2.56215,1.4749 -5,1.5621 -4.20031,0.1502 -4.20031,0.1502 0.29969,0.7738 4.21179,0.5836 3.98763,0.6673 -3.5,1.3071 -10.35948,0.8853 -33.99993,0.7533 -38.5,-0.2148 z M 339.92183,272.49181 c 0.32421,-3.72327 -1.05348,-5.9771 -3.15959,-5.16891 -1.62643,0.62412 -2.11198,4.18173 -0.9751,7.1444 1.02982,2.68366 3.84616,1.33806 4.13469,-1.97549 z m -4.32624,-14.11332 c -2.08355,-3.93486 -3.75679,-4.57171 -4.22875,-1.60949 -0.41147,2.58256 3.72543,7.70004 5.10743,6.31804 0.7408,-0.74079 0.47876,-2.14498 -0.87868,-4.70855 z m 11.96756,-7.42476 c 1.17031,-2.92489 1.33897,-4.56952 0.60858,-5.93426 -0.55573,-1.03839 -1.01042,-3.86757 -1.01042,-6.28706 0,-7.01665 -6.75258,-5.3089 -8.96623,2.26759 -3.1452,10.7648 5.4075,19.85217 9.36807,9.95373 z"
       id="path2989"
       inkscape:connector-curvature="0"
       sodipodi:nodetypes="ccccssscscssscsssssssssssssscssscssssssssssssssssssssssssssssssssssssssssssssssssssssssssssssssssssssssssssssssssssssscsscsssssssssssssssssssssssssssssssssssssssscssssssssssssssssssssssssssssssssssccsssscsccccsssssssssssss" />
  </g>
</svg>
